<?xml version="1.0" ?><svg id="Layer_1" style="enable-background:new 0 0 64 64;" version="1.1" viewBox="0 0 64 64" xml:space="preserve" xmlns="http://www.w3.org/2000/svg" xmlns:xlink="http://www.w3.org/1999/xlink"><style type="text/css">
	.st0{fill:#009966;}
	.st1{fill:#231F20;}
	.st2{fill:#EF1D1D;}
	.st3{fill:#EF5959;}
	.st4{opacity:0.5;fill:none;stroke:#FFFFFF;stroke-width:2;stroke-linecap:round;stroke-miterlimit:10;}
</style><path class="st0" d="M53.3,20.5H29.9c-0.5,0-0.9,0.3-1,0.8c-0.3,1.3-1.5,2.2-2.9,2.2s-2.5-0.9-2.9-2.2c-0.1-0.5-0.5-0.8-1-0.8h-9.5  c-1.2,0-2.2,1-2.2,2.2v18.7c0,1.2,1,2.2,2.2,2.2h9.5c0.5,0,0.9-0.3,1-0.8c0.3-1.3,1.5-2.2,2.9-2.2s2.5,0.9,2.9,2.2  c0.1,0.5,0.5,0.8,1,0.8h23.5c1.2,0,2.2-1,2.2-2.2V22.7C55.5,21.5,54.5,20.5,53.3,20.5z"/><path class="st1" d="M53.3,44H29.9c-0.7,0-1.3-0.5-1.5-1.2C28.1,41.8,27.1,41,26,41s-2.1,0.8-2.4,1.8c-0.2,0.7-0.8,1.2-1.5,1.2h-9.5  c-1.5,0-2.7-1.2-2.7-2.7V22.7c0-1.5,1.2-2.7,2.7-2.7h9.5c0.7,0,1.3,0.5,1.5,1.2c0.3,1.1,1.3,1.8,2.4,1.8s2.1-0.8,2.4-1.8  c0.2-0.7,0.8-1.2,1.5-1.2h23.5c1.5,0,2.7,1.2,2.7,2.7v18.7C56,42.8,54.8,44,53.3,44z M26,40c1.6,0,3,1.1,3.4,2.6  c0.1,0.2,0.2,0.4,0.5,0.4h23.5c0.9,0,1.7-0.8,1.7-1.7V22.7c0-0.9-0.8-1.7-1.7-1.7H29.9c-0.3,0-0.4,0.2-0.5,0.4  C29,22.9,27.6,24,26,24s-3-1.1-3.4-2.6c-0.1-0.2-0.2-0.4-0.5-0.4h-9.5c-0.9,0-1.7,0.8-1.7,1.7v18.7c0,0.9,0.8,1.7,1.7,1.7h9.5  c0.3,0,0.4-0.2,0.5-0.4C23,41.1,24.4,40,26,40z"/><path class="st2" d="M51.3,20.5H27.9c-0.5,0-0.9,0.3-1,0.8c-0.3,1.3-1.5,2.2-2.9,2.2s-2.5-0.9-2.9-2.2c-0.1-0.5-0.5-0.8-1-0.8h-9.5  c-1.2,0-2.2,1-2.2,2.2v18.7c0,1.2,1,2.2,2.2,2.2h9.5c0.5,0,0.9-0.3,1-0.8c0.3-1.3,1.5-2.2,2.9-2.2s2.5,0.9,2.9,2.2  c0.1,0.5,0.5,0.8,1,0.8h23.5c1.2,0,2.2-1,2.2-2.2V22.7C53.5,21.5,52.5,20.5,51.3,20.5z"/><path class="st1" d="M51.3,44H27.9c-0.7,0-1.3-0.5-1.5-1.2C26.1,41.8,25.1,41,24,41s-2.1,0.8-2.4,1.8c-0.2,0.7-0.8,1.2-1.5,1.2h-9.5  C9.2,44,8,42.8,8,41.3V22.7c0-1.5,1.2-2.7,2.7-2.7h9.5c0.7,0,1.3,0.5,1.5,1.2c0.3,1.1,1.3,1.8,2.4,1.8s2.1-0.8,2.4-1.8  c0.2-0.7,0.8-1.2,1.5-1.2h23.5c1.5,0,2.7,1.2,2.7,2.7v18.7C54,42.8,52.8,44,51.3,44z M24,40c1.6,0,3,1.1,3.4,2.6  c0.1,0.2,0.2,0.4,0.5,0.4h23.5c0.9,0,1.7-0.8,1.7-1.7V22.7c0-0.9-0.8-1.7-1.7-1.7H27.9c-0.3,0-0.4,0.2-0.5,0.4  C27,22.9,25.6,24,24,24s-3-1.1-3.4-2.6c-0.1-0.2-0.2-0.4-0.5-0.4h-9.5C9.8,21,9,21.8,9,22.7v18.7c0,0.9,0.8,1.7,1.7,1.7h9.5  c0.3,0,0.4-0.2,0.5-0.4C21,41.1,22.4,40,24,40z"/><g><line class="st3" x1="24.5" x2="24.5" y1="25.5" y2="38.5"/><g><path class="st3" d="M24.5,27c-0.3,0-0.5-0.2-0.5-0.5v-1c0-0.3,0.2-0.5,0.5-0.5s0.5,0.2,0.5,0.5v1C25,26.8,24.8,27,24.5,27z"/><path class="st3" d="M24.5,35.8c-0.3,0-0.5-0.2-0.5-0.5v-2.2c0-0.3,0.2-0.5,0.5-0.5s0.5,0.2,0.5,0.5v2.2    C25,35.6,24.8,35.8,24.5,35.8z M24.5,31.4c-0.3,0-0.5-0.2-0.5-0.5v-2.2c0-0.3,0.2-0.5,0.5-0.5s0.5,0.2,0.5,0.5v2.2    C25,31.2,24.8,31.4,24.5,31.4z"/><path class="st3" d="M24.5,39c-0.3,0-0.5-0.2-0.5-0.5v-1c0-0.3,0.2-0.5,0.5-0.5s0.5,0.2,0.5,0.5v1C25,38.8,24.8,39,24.5,39z"/></g></g><path class="st4" d="M51.5,39.5c0,1.1-0.9,2-2,2"/><line class="st4" x1="11" x2="11" y1="39" y2="37"/><g><line class="st3" x1="21" x2="15" y1="27" y2="27"/><path class="st3" d="M21,28h-6c-0.6,0-1-0.4-1-1s0.4-1,1-1h6c0.6,0,1,0.4,1,1S21.6,28,21,28z"/></g><g><line class="st3" x1="21" x2="15" y1="31" y2="31"/><path class="st3" d="M21,32h-6c-0.6,0-1-0.4-1-1s0.4-1,1-1h6c0.6,0,1,0.4,1,1S21.6,32,21,32z"/></g><g><line class="st3" x1="50" x2="39" y1="35" y2="35"/><path class="st3" d="M50,36H39c-0.6,0-1-0.4-1-1s0.4-1,1-1h11c0.6,0,1,0.4,1,1S50.6,36,50,36z"/></g><g><line class="st3" x1="50" x2="39" y1="31" y2="31"/><path class="st3" d="M50,32H39c-0.6,0-1-0.4-1-1s0.4-1,1-1h11c0.6,0,1,0.4,1,1S50.6,32,50,32z"/></g><g><line class="st3" x1="50" x2="28" y1="27" y2="27"/><path class="st3" d="M50,28H28c-0.6,0-1-0.4-1-1s0.4-1,1-1h22c0.6,0,1,0.4,1,1S50.6,28,50,28z"/></g><path class="st4" d="M11,33v-8c0-1.1,0.9-2,2-2"/></svg>